<mxfile host="app.diagrams.net" agent="Mozilla/5.0 (Windows NT 10.0; Win64; x64) AppleWebKit/537.36 (KHTML, like Gecko) Chrome/132.0.0.0 Safari/537.36 Edg/132.0.0.0" version="26.0.11">
  <diagram name="Page-1" id="pgaPNcEyneE9ROjen3j1">
    <mxGraphModel dx="1737" dy="942" grid="1" gridSize="10" guides="1" tooltips="1" connect="1" arrows="1" fold="1" page="1" pageScale="1" pageWidth="850" pageHeight="1100" math="0" shadow="0">
      <root>
        <mxCell id="0" />
        <mxCell id="1" parent="0" />
        <mxCell id="DALeheetJn7gOVZ7iviD-1" value="&lt;div&gt;&amp;nbsp;&lt;/div&gt;&lt;div&gt;&lt;span style=&quot;background-color: transparent; color: light-dark(rgb(0, 0, 0), rgb(255, 255, 255));&quot;&gt;Servidor&lt;/span&gt;&lt;/div&gt;API GATEWAY&lt;div&gt;&lt;br&gt;&lt;/div&gt;&lt;div&gt;&lt;br&gt;&lt;div&gt;&lt;br&gt;&lt;/div&gt;&lt;div&gt;&lt;br&gt;&lt;/div&gt;&lt;div&gt;&lt;br&gt;&lt;/div&gt;&lt;div&gt;&lt;br&gt;&lt;/div&gt;&lt;/div&gt;" style="shape=cube;whiteSpace=wrap;html=1;boundedLbl=1;backgroundOutline=1;darkOpacity=0.05;darkOpacity2=0.1;" vertex="1" parent="1">
          <mxGeometry x="898" y="385" width="160" height="130" as="geometry" />
        </mxCell>
        <mxCell id="DALeheetJn7gOVZ7iviD-2" value="" style="shape=module;align=left;spacingLeft=20;align=center;verticalAlign=top;whiteSpace=wrap;html=1;direction=west;" vertex="1" parent="1">
          <mxGeometry x="958" y="455" width="60" height="50" as="geometry" />
        </mxCell>
        <mxCell id="DALeheetJn7gOVZ7iviD-3" value="&lt;font style=&quot;font-size: 9px;&quot;&gt;Monitor&lt;/font&gt;" style="text;html=1;align=center;verticalAlign=middle;whiteSpace=wrap;rounded=0;" vertex="1" parent="1">
          <mxGeometry x="948" y="465" width="60" height="30" as="geometry" />
        </mxCell>
        <mxCell id="DALeheetJn7gOVZ7iviD-24" value="" style="edgeStyle=orthogonalEdgeStyle;rounded=0;orthogonalLoop=1;jettySize=auto;html=1;exitX=0.433;exitY=0.991;exitDx=0;exitDy=0;exitPerimeter=0;" edge="1" parent="1">
          <mxGeometry relative="1" as="geometry">
            <mxPoint x="1275.2600000000002" y="287.48" as="sourcePoint" />
            <mxPoint x="1295" y="390" as="targetPoint" />
            <Array as="points">
              <mxPoint x="1295" y="288" />
            </Array>
          </mxGeometry>
        </mxCell>
        <mxCell id="DALeheetJn7gOVZ7iviD-130" value="TCP/IP" style="edgeLabel;html=1;align=center;verticalAlign=middle;resizable=0;points=[];" vertex="1" connectable="0" parent="DALeheetJn7gOVZ7iviD-24">
          <mxGeometry x="0.1878" y="4" relative="1" as="geometry">
            <mxPoint y="1" as="offset" />
          </mxGeometry>
        </mxCell>
        <mxCell id="DALeheetJn7gOVZ7iviD-4" value="Servidor de ventas 1&lt;div&gt;&lt;br&gt;&lt;/div&gt;&lt;div&gt;&lt;br&gt;&lt;/div&gt;&lt;div&gt;&lt;br&gt;&lt;/div&gt;&lt;div&gt;&lt;br&gt;&lt;/div&gt;&lt;div&gt;&lt;br&gt;&lt;/div&gt;&lt;div&gt;&lt;br&gt;&lt;/div&gt;&lt;div&gt;&lt;br&gt;&lt;/div&gt;&lt;div&gt;&lt;br&gt;&lt;div&gt;&lt;br&gt;&lt;/div&gt;&lt;div&gt;&lt;br&gt;&lt;/div&gt;&lt;div&gt;&lt;br&gt;&lt;/div&gt;&lt;div&gt;&lt;br&gt;&lt;/div&gt;&lt;div&gt;&lt;br&gt;&lt;/div&gt;&lt;div&gt;&lt;br&gt;&lt;div&gt;&lt;br&gt;&lt;/div&gt;&lt;/div&gt;&lt;/div&gt;" style="shape=cube;whiteSpace=wrap;html=1;boundedLbl=1;backgroundOutline=1;darkOpacity=0.05;darkOpacity2=0.1;" vertex="1" parent="1">
          <mxGeometry x="1168" y="10" width="220" height="280" as="geometry" />
        </mxCell>
        <mxCell id="DALeheetJn7gOVZ7iviD-6" value="" style="shape=hexagon;perimeter=hexagonPerimeter2;whiteSpace=wrap;html=1;fixedSize=1;labelBackgroundColor=none;fillColor=#d5e8d4;strokeColor=#82b366;" vertex="1" parent="1">
          <mxGeometry x="1208.5" y="90" width="90" height="80" as="geometry" />
        </mxCell>
        <mxCell id="DALeheetJn7gOVZ7iviD-7" value="Servidor de BDS&lt;div&gt;&lt;br&gt;&lt;/div&gt;&lt;div&gt;&lt;br&gt;&lt;/div&gt;&lt;div&gt;&lt;br&gt;&lt;/div&gt;&lt;div&gt;&lt;br&gt;&lt;/div&gt;&lt;div&gt;&lt;br&gt;&lt;/div&gt;&lt;div&gt;&lt;br&gt;&lt;div&gt;&lt;br&gt;&lt;/div&gt;&lt;/div&gt;&lt;div&gt;&lt;br&gt;&lt;/div&gt;&lt;div&gt;&lt;br&gt;&lt;/div&gt;&lt;div&gt;&lt;br&gt;&lt;/div&gt;&lt;div&gt;&lt;br&gt;&lt;/div&gt;&lt;div&gt;&lt;br&gt;&lt;/div&gt;&lt;div&gt;&lt;br&gt;&lt;/div&gt;&lt;div&gt;&lt;br&gt;&lt;/div&gt;&lt;div&gt;&lt;br&gt;&lt;/div&gt;&lt;div&gt;&lt;br&gt;&lt;/div&gt;" style="shape=cube;whiteSpace=wrap;html=1;boundedLbl=1;backgroundOutline=1;darkOpacity=0.05;darkOpacity2=0.1;" vertex="1" parent="1">
          <mxGeometry x="1568" y="410" width="240" height="280" as="geometry" />
        </mxCell>
        <mxCell id="DALeheetJn7gOVZ7iviD-8" value="Servidor de Compras 1&lt;div&gt;&lt;br&gt;&lt;/div&gt;&lt;div&gt;&lt;br&gt;&lt;/div&gt;&lt;div&gt;&lt;br&gt;&lt;/div&gt;&lt;div&gt;&lt;br&gt;&lt;/div&gt;&lt;div&gt;&lt;br&gt;&lt;/div&gt;&lt;div&gt;&lt;br&gt;&lt;div&gt;&lt;br&gt;&lt;/div&gt;&lt;/div&gt;&lt;div&gt;&lt;br&gt;&lt;/div&gt;&lt;div&gt;&lt;br&gt;&lt;/div&gt;&lt;div&gt;&lt;br&gt;&lt;/div&gt;&lt;div&gt;&lt;br&gt;&lt;/div&gt;&lt;div&gt;&lt;br&gt;&lt;/div&gt;&lt;div&gt;&lt;br&gt;&lt;/div&gt;&lt;div&gt;&lt;br&gt;&lt;/div&gt;" style="shape=cube;whiteSpace=wrap;html=1;boundedLbl=1;backgroundOutline=1;darkOpacity=0.05;darkOpacity2=0.1;" vertex="1" parent="1">
          <mxGeometry x="1168" y="390" width="230" height="260" as="geometry" />
        </mxCell>
        <mxCell id="DALeheetJn7gOVZ7iviD-10" value="Servidor de LogÃ­stica 1&lt;div&gt;&lt;br&gt;&lt;/div&gt;&lt;div&gt;&lt;br&gt;&lt;/div&gt;&lt;div&gt;&lt;br&gt;&lt;/div&gt;&lt;div&gt;&lt;br&gt;&lt;/div&gt;&lt;div&gt;&lt;br&gt;&lt;/div&gt;&lt;div&gt;&lt;br&gt;&lt;div&gt;&lt;br&gt;&lt;/div&gt;&lt;/div&gt;&lt;div&gt;&lt;br&gt;&lt;/div&gt;&lt;div&gt;&lt;br&gt;&lt;/div&gt;&lt;div&gt;&lt;br&gt;&lt;/div&gt;&lt;div&gt;&lt;br&gt;&lt;/div&gt;&lt;div&gt;&lt;br&gt;&lt;/div&gt;&lt;div&gt;&lt;br&gt;&lt;/div&gt;&lt;div&gt;&lt;br&gt;&lt;/div&gt;" style="shape=cube;whiteSpace=wrap;html=1;boundedLbl=1;backgroundOutline=1;darkOpacity=0.05;darkOpacity2=0.1;" vertex="1" parent="1">
          <mxGeometry x="1193" y="730" width="220" height="260" as="geometry" />
        </mxCell>
        <mxCell id="DALeheetJn7gOVZ7iviD-12" style="edgeStyle=orthogonalEdgeStyle;rounded=0;orthogonalLoop=1;jettySize=auto;html=1;exitX=0;exitY=0;exitDx=160;exitDy=75;exitPerimeter=0;entryX=0;entryY=0;entryDx=0;entryDy=70;entryPerimeter=0;" edge="1" parent="1" source="DALeheetJn7gOVZ7iviD-1" target="DALeheetJn7gOVZ7iviD-8">
          <mxGeometry relative="1" as="geometry" />
        </mxCell>
        <mxCell id="DALeheetJn7gOVZ7iviD-31" value="TCP/IP" style="edgeLabel;html=1;align=center;verticalAlign=middle;resizable=0;points=[];" vertex="1" connectable="0" parent="DALeheetJn7gOVZ7iviD-12">
          <mxGeometry x="-0.0312" y="-2" relative="1" as="geometry">
            <mxPoint as="offset" />
          </mxGeometry>
        </mxCell>
        <mxCell id="DALeheetJn7gOVZ7iviD-13" style="edgeStyle=orthogonalEdgeStyle;rounded=0;orthogonalLoop=1;jettySize=auto;html=1;exitX=0;exitY=0;exitDx=70;exitDy=0;exitPerimeter=0;entryX=0;entryY=0;entryDx=0;entryDy=70;entryPerimeter=0;" edge="1" parent="1" source="DALeheetJn7gOVZ7iviD-1" target="DALeheetJn7gOVZ7iviD-4">
          <mxGeometry relative="1" as="geometry" />
        </mxCell>
        <mxCell id="DALeheetJn7gOVZ7iviD-66" value="TCP/IP" style="edgeLabel;html=1;align=center;verticalAlign=middle;resizable=0;points=[];" vertex="1" connectable="0" parent="DALeheetJn7gOVZ7iviD-13">
          <mxGeometry x="-0.4229" y="-1" relative="1" as="geometry">
            <mxPoint as="offset" />
          </mxGeometry>
        </mxCell>
        <mxCell id="DALeheetJn7gOVZ7iviD-14" style="edgeStyle=orthogonalEdgeStyle;rounded=0;orthogonalLoop=1;jettySize=auto;html=1;exitX=0;exitY=0;exitDx=90;exitDy=130;exitPerimeter=0;entryX=0;entryY=0;entryDx=0;entryDy=70;entryPerimeter=0;" edge="1" parent="1" source="DALeheetJn7gOVZ7iviD-1" target="DALeheetJn7gOVZ7iviD-10">
          <mxGeometry relative="1" as="geometry" />
        </mxCell>
        <mxCell id="DALeheetJn7gOVZ7iviD-67" value="TCPIP" style="edgeLabel;html=1;align=center;verticalAlign=middle;resizable=0;points=[];" vertex="1" connectable="0" parent="DALeheetJn7gOVZ7iviD-14">
          <mxGeometry x="-0.4227" relative="1" as="geometry">
            <mxPoint as="offset" />
          </mxGeometry>
        </mxCell>
        <mxCell id="DALeheetJn7gOVZ7iviD-16" style="edgeStyle=orthogonalEdgeStyle;rounded=0;orthogonalLoop=1;jettySize=auto;html=1;exitX=0;exitY=0;exitDx=70;exitDy=0;exitPerimeter=0;" edge="1" parent="1" source="DALeheetJn7gOVZ7iviD-8">
          <mxGeometry relative="1" as="geometry">
            <mxPoint x="1258" y="290" as="targetPoint" />
            <Array as="points">
              <mxPoint x="1258" y="390" />
            </Array>
          </mxGeometry>
        </mxCell>
        <mxCell id="DALeheetJn7gOVZ7iviD-129" value="TCP/IP" style="edgeLabel;html=1;align=center;verticalAlign=middle;resizable=0;points=[];" vertex="1" connectable="0" parent="DALeheetJn7gOVZ7iviD-16">
          <mxGeometry x="0.1933" y="3" relative="1" as="geometry">
            <mxPoint as="offset" />
          </mxGeometry>
        </mxCell>
        <mxCell id="DALeheetJn7gOVZ7iviD-19" style="edgeStyle=orthogonalEdgeStyle;rounded=0;orthogonalLoop=1;jettySize=auto;html=1;entryX=0;entryY=0;entryDx=0;entryDy=110.00000000000001;entryPerimeter=0;exitX=0;exitY=0;exitDx=230.00000000000003;exitDy=90;exitPerimeter=0;" edge="1" parent="1" source="DALeheetJn7gOVZ7iviD-8" target="DALeheetJn7gOVZ7iviD-7">
          <mxGeometry relative="1" as="geometry">
            <mxPoint x="1508" y="700" as="sourcePoint" />
            <Array as="points">
              <mxPoint x="1398" y="520" />
            </Array>
          </mxGeometry>
        </mxCell>
        <mxCell id="DALeheetJn7gOVZ7iviD-32" value="TCP/IP" style="edgeLabel;html=1;align=center;verticalAlign=middle;resizable=0;points=[];" vertex="1" connectable="0" parent="DALeheetJn7gOVZ7iviD-19">
          <mxGeometry x="0.0541" y="4" relative="1" as="geometry">
            <mxPoint as="offset" />
          </mxGeometry>
        </mxCell>
        <mxCell id="DALeheetJn7gOVZ7iviD-20" style="edgeStyle=orthogonalEdgeStyle;rounded=0;orthogonalLoop=1;jettySize=auto;html=1;exitX=1.001;exitY=0.314;exitDx=0;exitDy=0;exitPerimeter=0;entryX=0;entryY=0;entryDx=150;entryDy=280;entryPerimeter=0;" edge="1" parent="1">
          <mxGeometry relative="1" as="geometry">
            <mxPoint x="1396.2199999999998" y="811.6400000000001" as="sourcePoint" />
            <mxPoint x="1701" y="690" as="targetPoint" />
          </mxGeometry>
        </mxCell>
        <mxCell id="DALeheetJn7gOVZ7iviD-68" value="TCP/IP" style="edgeLabel;html=1;align=center;verticalAlign=middle;resizable=0;points=[];" vertex="1" connectable="0" parent="DALeheetJn7gOVZ7iviD-20">
          <mxGeometry x="-0.3669" y="-2" relative="1" as="geometry">
            <mxPoint as="offset" />
          </mxGeometry>
        </mxCell>
        <mxCell id="DALeheetJn7gOVZ7iviD-22" value="" style="shape=hexagon;perimeter=hexagonPerimeter2;whiteSpace=wrap;html=1;fixedSize=1;" vertex="1" parent="1">
          <mxGeometry x="1216" y="98" width="75" height="65" as="geometry" />
        </mxCell>
        <mxCell id="DALeheetJn7gOVZ7iviD-35" value="" style="shape=hexagon;perimeter=hexagonPerimeter2;whiteSpace=wrap;html=1;fixedSize=1;fillColor=#fff2cc;strokeColor=#d6b656;" vertex="1" parent="1">
          <mxGeometry x="1208.5" y="180" width="90" height="80" as="geometry" />
        </mxCell>
        <mxCell id="DALeheetJn7gOVZ7iviD-36" value="" style="shape=hexagon;perimeter=hexagonPerimeter2;whiteSpace=wrap;html=1;fixedSize=1;" vertex="1" parent="1">
          <mxGeometry x="1216" y="188" width="75" height="65" as="geometry" />
        </mxCell>
        <mxCell id="DALeheetJn7gOVZ7iviD-37" value="" style="shape=hexagon;perimeter=hexagonPerimeter2;whiteSpace=wrap;html=1;fixedSize=1;fillColor=#fff2cc;strokeColor=#d6b656;" vertex="1" parent="1">
          <mxGeometry x="1291" y="136" width="90" height="80" as="geometry" />
        </mxCell>
        <mxCell id="DALeheetJn7gOVZ7iviD-38" value="" style="shape=hexagon;perimeter=hexagonPerimeter2;whiteSpace=wrap;html=1;fixedSize=1;" vertex="1" parent="1">
          <mxGeometry x="1298.5" y="144" width="75" height="65" as="geometry" />
        </mxCell>
        <mxCell id="DALeheetJn7gOVZ7iviD-39" value="" style="shape=hexagon;perimeter=hexagonPerimeter2;whiteSpace=wrap;html=1;fixedSize=1;fillColor=#fff2cc;strokeColor=#d6b656;" vertex="1" parent="1">
          <mxGeometry x="1211.75" y="445" width="90" height="80" as="geometry" />
        </mxCell>
        <mxCell id="DALeheetJn7gOVZ7iviD-40" value="" style="shape=hexagon;perimeter=hexagonPerimeter2;whiteSpace=wrap;html=1;fixedSize=1;" vertex="1" parent="1">
          <mxGeometry x="1219.25" y="453" width="75" height="65" as="geometry" />
        </mxCell>
        <mxCell id="DALeheetJn7gOVZ7iviD-41" value="" style="shape=hexagon;perimeter=hexagonPerimeter2;whiteSpace=wrap;html=1;fixedSize=1;fillColor=#fff2cc;strokeColor=#d6b656;" vertex="1" parent="1">
          <mxGeometry x="1211.75" y="535" width="90" height="80" as="geometry" />
        </mxCell>
        <mxCell id="DALeheetJn7gOVZ7iviD-42" value="" style="shape=hexagon;perimeter=hexagonPerimeter2;whiteSpace=wrap;html=1;fixedSize=1;" vertex="1" parent="1">
          <mxGeometry x="1219.25" y="543" width="75" height="65" as="geometry" />
        </mxCell>
        <mxCell id="DALeheetJn7gOVZ7iviD-43" value="" style="shape=hexagon;perimeter=hexagonPerimeter2;whiteSpace=wrap;html=1;fixedSize=1;fillColor=#d5e8d4;strokeColor=#82b366;" vertex="1" parent="1">
          <mxGeometry x="1294.25" y="491" width="90" height="80" as="geometry" />
        </mxCell>
        <mxCell id="DALeheetJn7gOVZ7iviD-44" value="" style="shape=hexagon;perimeter=hexagonPerimeter2;whiteSpace=wrap;html=1;fixedSize=1;" vertex="1" parent="1">
          <mxGeometry x="1301.75" y="499" width="75" height="65" as="geometry" />
        </mxCell>
        <mxCell id="DALeheetJn7gOVZ7iviD-45" value="" style="shape=hexagon;perimeter=hexagonPerimeter2;whiteSpace=wrap;html=1;fixedSize=1;fillColor=#fff2cc;strokeColor=#d6b656;" vertex="1" parent="1">
          <mxGeometry x="1230.5" y="800" width="90" height="80" as="geometry" />
        </mxCell>
        <mxCell id="DALeheetJn7gOVZ7iviD-46" value="" style="shape=hexagon;perimeter=hexagonPerimeter2;whiteSpace=wrap;html=1;fixedSize=1;" vertex="1" parent="1">
          <mxGeometry x="1238" y="808" width="75" height="65" as="geometry" />
        </mxCell>
        <mxCell id="DALeheetJn7gOVZ7iviD-47" value="" style="shape=hexagon;perimeter=hexagonPerimeter2;whiteSpace=wrap;html=1;fixedSize=1;fillColor=#d5e8d4;strokeColor=#82b366;" vertex="1" parent="1">
          <mxGeometry x="1230.5" y="890" width="90" height="80" as="geometry" />
        </mxCell>
        <mxCell id="DALeheetJn7gOVZ7iviD-48" value="" style="shape=hexagon;perimeter=hexagonPerimeter2;whiteSpace=wrap;html=1;fixedSize=1;" vertex="1" parent="1">
          <mxGeometry x="1238" y="898" width="75" height="65" as="geometry" />
        </mxCell>
        <mxCell id="DALeheetJn7gOVZ7iviD-49" value="" style="shape=hexagon;perimeter=hexagonPerimeter2;whiteSpace=wrap;html=1;fixedSize=1;fillColor=#fff2cc;strokeColor=#d6b656;" vertex="1" parent="1">
          <mxGeometry x="1313" y="846" width="90" height="80" as="geometry" />
        </mxCell>
        <mxCell id="DALeheetJn7gOVZ7iviD-50" value="" style="shape=hexagon;perimeter=hexagonPerimeter2;whiteSpace=wrap;html=1;fixedSize=1;" vertex="1" parent="1">
          <mxGeometry x="1320.5" y="854" width="75" height="65" as="geometry" />
        </mxCell>
        <mxCell id="DALeheetJn7gOVZ7iviD-51" value="Micro servicio de ventas" style="text;html=1;align=center;verticalAlign=middle;whiteSpace=wrap;rounded=0;fontSize=10;" vertex="1" parent="1">
          <mxGeometry x="1221.5" y="121" width="66.25" height="30" as="geometry" />
        </mxCell>
        <mxCell id="DALeheetJn7gOVZ7iviD-52" value="Micro servicio de ventas" style="text;html=1;align=center;verticalAlign=middle;whiteSpace=wrap;rounded=0;fontSize=10;" vertex="1" parent="1">
          <mxGeometry x="1223.5" y="473" width="66.25" height="30" as="geometry" />
        </mxCell>
        <mxCell id="DALeheetJn7gOVZ7iviD-53" value="Micro servicio de compras" style="text;html=1;align=center;verticalAlign=middle;whiteSpace=wrap;rounded=0;fontSize=10;" vertex="1" parent="1">
          <mxGeometry x="1327.25" y="870" width="66.25" height="40" as="geometry" />
        </mxCell>
        <mxCell id="DALeheetJn7gOVZ7iviD-54" value="Micro servicio de compras" style="text;html=1;align=center;verticalAlign=middle;whiteSpace=wrap;rounded=0;fontSize=10;" vertex="1" parent="1">
          <mxGeometry x="1308" y="515" width="66.25" height="40" as="geometry" />
        </mxCell>
        <mxCell id="DALeheetJn7gOVZ7iviD-55" value="Micro servicio de compras" style="text;html=1;align=center;verticalAlign=middle;whiteSpace=wrap;rounded=0;fontSize=10;" vertex="1" parent="1">
          <mxGeometry x="1305.13" y="159.5" width="66.25" height="40" as="geometry" />
        </mxCell>
        <mxCell id="DALeheetJn7gOVZ7iviD-56" value="Micro servicio de logÃ­&lt;span style=&quot;color: rgba(0, 0, 0, 0); font-family: monospace; font-size: 0px; text-align: start; text-wrap-mode: nowrap;&quot;&gt;%3CmxGraphModel%3E%3Croot%3E%3CmxCell%20id%3D%220%22%2F%3E%3CmxCell%20id%3D%221%22%20parent%3D%220%22%2F%3E%3CmxCell%20id%3D%222%22%20value%3D%22Micro%20servicio%20de%20compras%22%20style%3D%22text%3Bhtml%3D1%3Balign%3Dcenter%3BverticalAlign%3Dmiddle%3BwhiteSpace%3Dwrap%3Brounded%3D0%3BfontSize%3D10%3B%22%20vertex%3D%221%22%20parent%3D%221%22%3E%3CmxGeometry%20x%3D%22537.13%22%20y%3D%2249.5%22%20width%3D%2266.25%22%20height%3D%2240%22%20as%3D%22geometry%22%2F%3E%3C%2FmxCell%3E%3C%2Froot%3E%3C%2FmxGraphModel%3E&lt;/span&gt;&lt;span style=&quot;background-color: transparent; color: light-dark(rgb(0, 0, 0), rgb(255, 255, 255));&quot;&gt;stica&lt;/span&gt;" style="text;html=1;align=center;verticalAlign=middle;whiteSpace=wrap;rounded=0;fontSize=10;" vertex="1" parent="1">
          <mxGeometry x="1221.5" y="204" width="66.25" height="40" as="geometry" />
        </mxCell>
        <mxCell id="DALeheetJn7gOVZ7iviD-57" value="Micro servicio de logÃ­&lt;span style=&quot;color: rgba(0, 0, 0, 0); font-family: monospace; font-size: 0px; text-align: start; text-wrap-mode: nowrap;&quot;&gt;%3CmxGraphModel%3E%3Croot%3E%3CmxCell%20id%3D%220%22%2F%3E%3CmxCell%20id%3D%221%22%20parent%3D%220%22%2F%3E%3CmxCell%20id%3D%222%22%20value%3D%22Micro%20servicio%20de%20compras%22%20style%3D%22text%3Bhtml%3D1%3Balign%3Dcenter%3BverticalAlign%3Dmiddle%3BwhiteSpace%3Dwrap%3Brounded%3D0%3BfontSize%3D10%3B%22%20vertex%3D%221%22%20parent%3D%221%22%3E%3CmxGeometry%20x%3D%22537.13%22%20y%3D%2249.5%22%20width%3D%2266.25%22%20height%3D%2240%22%20as%3D%22geometry%22%2F%3E%3C%2FmxCell%3E%3C%2Froot%3E%3C%2FmxGraphModel%3E&lt;/span&gt;&lt;span style=&quot;background-color: transparent; color: light-dark(rgb(0, 0, 0), rgb(255, 255, 255));&quot;&gt;stica&lt;/span&gt;" style="text;html=1;align=center;verticalAlign=middle;whiteSpace=wrap;rounded=0;fontSize=10;" vertex="1" parent="1">
          <mxGeometry x="1224.75" y="560" width="66.25" height="40" as="geometry" />
        </mxCell>
        <mxCell id="DALeheetJn7gOVZ7iviD-60" value="Micro servicio de logÃ­&lt;span style=&quot;color: rgba(0, 0, 0, 0); font-family: monospace; font-size: 0px; text-align: start; text-wrap-mode: nowrap;&quot;&gt;%3CmxGraphModel%3E%3Croot%3E%3CmxCell%20id%3D%220%22%2F%3E%3CmxCell%20id%3D%221%22%20parent%3D%220%22%2F%3E%3CmxCell%20id%3D%222%22%20value%3D%22Micro%20servicio%20de%20compras%22%20style%3D%22text%3Bhtml%3D1%3Balign%3Dcenter%3BverticalAlign%3Dmiddle%3BwhiteSpace%3Dwrap%3Brounded%3D0%3BfontSize%3D10%3B%22%20vertex%3D%221%22%20parent%3D%221%22%3E%3CmxGeometry%20x%3D%22537.13%22%20y%3D%2249.5%22%20width%3D%2266.25%22%20height%3D%2240%22%20as%3D%22geometry%22%2F%3E%3C%2FmxCell%3E%3C%2Froot%3E%3C%2FmxGraphModel%3E&lt;/span&gt;&lt;span style=&quot;background-color: transparent; color: light-dark(rgb(0, 0, 0), rgb(255, 255, 255));&quot;&gt;stica&lt;/span&gt;" style="text;html=1;align=center;verticalAlign=middle;whiteSpace=wrap;rounded=0;fontSize=10;" vertex="1" parent="1">
          <mxGeometry x="1243.88" y="910.5" width="66.25" height="40" as="geometry" />
        </mxCell>
        <mxCell id="DALeheetJn7gOVZ7iviD-61" value="Micro servicio de ventas" style="text;html=1;align=center;verticalAlign=middle;whiteSpace=wrap;rounded=0;fontSize=10;" vertex="1" parent="1">
          <mxGeometry x="1243.88" y="825.5" width="66.25" height="30" as="geometry" />
        </mxCell>
        <mxCell id="DALeheetJn7gOVZ7iviD-63" style="edgeStyle=orthogonalEdgeStyle;rounded=0;orthogonalLoop=1;jettySize=auto;html=1;exitX=0;exitY=0;exitDx=100;exitDy=0;exitPerimeter=0;entryX=0;entryY=0;entryDx=125.00000000000001;entryDy=260;entryPerimeter=0;" edge="1" parent="1" source="DALeheetJn7gOVZ7iviD-10" target="DALeheetJn7gOVZ7iviD-8">
          <mxGeometry relative="1" as="geometry" />
        </mxCell>
        <mxCell id="DALeheetJn7gOVZ7iviD-132" value="TCP/IP" style="edgeLabel;html=1;align=center;verticalAlign=middle;resizable=0;points=[];" vertex="1" connectable="0" parent="DALeheetJn7gOVZ7iviD-63">
          <mxGeometry x="-0.31" y="2" relative="1" as="geometry">
            <mxPoint as="offset" />
          </mxGeometry>
        </mxCell>
        <mxCell id="DALeheetJn7gOVZ7iviD-64" style="edgeStyle=orthogonalEdgeStyle;rounded=0;orthogonalLoop=1;jettySize=auto;html=1;exitX=0;exitY=0;exitDx=125.00000000000001;exitDy=260;exitPerimeter=0;entryX=0.329;entryY=0.012;entryDx=0;entryDy=0;entryPerimeter=0;" edge="1" parent="1">
          <mxGeometry relative="1" as="geometry">
            <mxPoint x="1288" y="650" as="sourcePoint" />
            <mxPoint x="1260.38" y="733.1199999999999" as="targetPoint" />
            <Array as="points">
              <mxPoint x="1260" y="650" />
            </Array>
          </mxGeometry>
        </mxCell>
        <mxCell id="DALeheetJn7gOVZ7iviD-131" value="TCP/IP" style="edgeLabel;html=1;align=center;verticalAlign=middle;resizable=0;points=[];" vertex="1" connectable="0" parent="DALeheetJn7gOVZ7iviD-64">
          <mxGeometry x="0.2645" y="-5" relative="1" as="geometry">
            <mxPoint as="offset" />
          </mxGeometry>
        </mxCell>
        <mxCell id="DALeheetJn7gOVZ7iviD-69" value="" style="endArrow=none;dashed=1;html=1;dashPattern=1 3;strokeWidth=2;rounded=0;exitX=0;exitY=0.5;exitDx=0;exitDy=0;entryX=0;entryY=0.5;entryDx=0;entryDy=0;" edge="1" parent="1" source="DALeheetJn7gOVZ7iviD-3" target="DALeheetJn7gOVZ7iviD-6">
          <mxGeometry width="50" height="50" relative="1" as="geometry">
            <mxPoint x="1238" y="450" as="sourcePoint" />
            <mxPoint x="828" y="455" as="targetPoint" />
            <Array as="points">
              <mxPoint x="848" y="480" />
              <mxPoint x="848" y="130" />
            </Array>
          </mxGeometry>
        </mxCell>
        <mxCell id="DALeheetJn7gOVZ7iviD-70" value="" style="endArrow=none;dashed=1;html=1;dashPattern=1 3;strokeWidth=2;rounded=0;entryX=0;entryY=0.5;entryDx=0;entryDy=0;" edge="1" parent="1" source="DALeheetJn7gOVZ7iviD-3" target="DALeheetJn7gOVZ7iviD-47">
          <mxGeometry width="50" height="50" relative="1" as="geometry">
            <mxPoint x="1238" y="450" as="sourcePoint" />
            <mxPoint x="1288" y="400" as="targetPoint" />
            <Array as="points">
              <mxPoint x="848" y="480" />
              <mxPoint x="848" y="930" />
            </Array>
          </mxGeometry>
        </mxCell>
        <mxCell id="DALeheetJn7gOVZ7iviD-71" value="" style="endArrow=none;dashed=1;html=1;dashPattern=1 3;strokeWidth=2;rounded=0;exitX=0.5;exitY=1;exitDx=0;exitDy=0;" edge="1" parent="1" source="DALeheetJn7gOVZ7iviD-41">
          <mxGeometry width="50" height="50" relative="1" as="geometry">
            <mxPoint x="1238" y="540" as="sourcePoint" />
            <mxPoint x="1258" y="680" as="targetPoint" />
          </mxGeometry>
        </mxCell>
        <mxCell id="DALeheetJn7gOVZ7iviD-72" value="" style="endArrow=none;dashed=1;html=1;dashPattern=1 3;strokeWidth=2;rounded=0;entryX=0.5;entryY=1;entryDx=0;entryDy=0;" edge="1" parent="1" target="DALeheetJn7gOVZ7iviD-43">
          <mxGeometry width="50" height="50" relative="1" as="geometry">
            <mxPoint x="848" y="590" as="sourcePoint" />
            <mxPoint x="1288" y="490" as="targetPoint" />
            <Array as="points">
              <mxPoint x="848" y="680" />
              <mxPoint x="1339" y="680" />
            </Array>
          </mxGeometry>
        </mxCell>
        <mxCell id="DALeheetJn7gOVZ7iviD-76" value="" style="endArrow=none;dashed=1;html=1;dashPattern=1 3;strokeWidth=2;rounded=0;exitX=0;exitY=0.5;exitDx=0;exitDy=0;" edge="1" parent="1" source="DALeheetJn7gOVZ7iviD-35">
          <mxGeometry width="50" height="50" relative="1" as="geometry">
            <mxPoint x="1238" y="250" as="sourcePoint" />
            <mxPoint x="848" y="220" as="targetPoint" />
          </mxGeometry>
        </mxCell>
        <mxCell id="DALeheetJn7gOVZ7iviD-77" value="" style="endArrow=none;dashed=1;html=1;dashPattern=1 3;strokeWidth=2;rounded=0;exitX=0;exitY=0.5;exitDx=0;exitDy=0;" edge="1" parent="1" source="DALeheetJn7gOVZ7iviD-45">
          <mxGeometry width="50" height="50" relative="1" as="geometry">
            <mxPoint x="1098" y="840" as="sourcePoint" />
            <mxPoint x="848" y="840" as="targetPoint" />
          </mxGeometry>
        </mxCell>
        <mxCell id="DALeheetJn7gOVZ7iviD-78" value="" style="endArrow=none;dashed=1;html=1;dashPattern=1 3;strokeWidth=2;rounded=0;exitX=0;exitY=0.5;exitDx=0;exitDy=0;" edge="1" parent="1" source="DALeheetJn7gOVZ7iviD-39">
          <mxGeometry width="50" height="50" relative="1" as="geometry">
            <mxPoint x="1238" y="490" as="sourcePoint" />
            <mxPoint x="1088" y="680" as="targetPoint" />
            <Array as="points">
              <mxPoint x="1088" y="485" />
            </Array>
          </mxGeometry>
        </mxCell>
        <mxCell id="DALeheetJn7gOVZ7iviD-79" value="" style="endArrow=none;dashed=1;html=1;dashPattern=1 3;strokeWidth=2;rounded=0;entryX=0.5;entryY=1;entryDx=0;entryDy=0;" edge="1" parent="1" target="DALeheetJn7gOVZ7iviD-49">
          <mxGeometry width="50" height="50" relative="1" as="geometry">
            <mxPoint x="1028" y="930" as="sourcePoint" />
            <mxPoint x="1288" y="910" as="targetPoint" />
            <Array as="points">
              <mxPoint x="1028" y="1070" />
              <mxPoint x="1358" y="1070" />
            </Array>
          </mxGeometry>
        </mxCell>
        <mxCell id="DALeheetJn7gOVZ7iviD-80" value="" style="endArrow=none;dashed=1;html=1;dashPattern=1 3;strokeWidth=2;rounded=0;entryX=0.5;entryY=1;entryDx=0;entryDy=0;" edge="1" parent="1" target="DALeheetJn7gOVZ7iviD-37">
          <mxGeometry width="50" height="50" relative="1" as="geometry">
            <mxPoint x="1088" y="220" as="sourcePoint" />
            <mxPoint x="1288" y="210" as="targetPoint" />
            <Array as="points">
              <mxPoint x="1088" y="320" />
              <mxPoint x="1336" y="320" />
            </Array>
          </mxGeometry>
        </mxCell>
        <mxCell id="DALeheetJn7gOVZ7iviD-82" value="" style="shape=hexagon;perimeter=hexagonPerimeter2;whiteSpace=wrap;html=1;fixedSize=1;fillColor=#d5e8d4;strokeColor=#82b366;" vertex="1" parent="1">
          <mxGeometry x="1608" y="495" width="90" height="80" as="geometry" />
        </mxCell>
        <mxCell id="DALeheetJn7gOVZ7iviD-83" value="" style="shape=hexagon;perimeter=hexagonPerimeter2;whiteSpace=wrap;html=1;fixedSize=1;" vertex="1" parent="1">
          <mxGeometry x="1615.5" y="503" width="75" height="65" as="geometry" />
        </mxCell>
        <mxCell id="DALeheetJn7gOVZ7iviD-84" value="" style="shape=hexagon;perimeter=hexagonPerimeter2;whiteSpace=wrap;html=1;fixedSize=1;fillColor=#d5e8d4;strokeColor=#82b366;" vertex="1" parent="1">
          <mxGeometry x="1608" y="585" width="90" height="80" as="geometry" />
        </mxCell>
        <mxCell id="DALeheetJn7gOVZ7iviD-85" value="" style="shape=hexagon;perimeter=hexagonPerimeter2;whiteSpace=wrap;html=1;fixedSize=1;" vertex="1" parent="1">
          <mxGeometry x="1615.5" y="593" width="75" height="65" as="geometry" />
        </mxCell>
        <mxCell id="DALeheetJn7gOVZ7iviD-88" value="BD&lt;div&gt;&amp;nbsp;ventas 1&lt;/div&gt;" style="text;html=1;align=center;verticalAlign=middle;whiteSpace=wrap;rounded=0;fontSize=10;" vertex="1" parent="1">
          <mxGeometry x="1619.75" y="523" width="66.25" height="30" as="geometry" />
        </mxCell>
        <mxCell id="DALeheetJn7gOVZ7iviD-91" style="edgeStyle=orthogonalEdgeStyle;rounded=0;orthogonalLoop=1;jettySize=auto;html=1;exitX=0;exitY=0;exitDx=220;exitDy=150;exitPerimeter=0;entryX=0;entryY=0;entryDx=130;entryDy=0;entryPerimeter=0;" edge="1" parent="1" source="DALeheetJn7gOVZ7iviD-4" target="DALeheetJn7gOVZ7iviD-7">
          <mxGeometry relative="1" as="geometry" />
        </mxCell>
        <mxCell id="DALeheetJn7gOVZ7iviD-98" value="" style="shape=hexagon;perimeter=hexagonPerimeter2;whiteSpace=wrap;html=1;fixedSize=1;fillColor=#d5e8d4;strokeColor=#82b366;" vertex="1" parent="1">
          <mxGeometry x="1684.25" y="538" width="90" height="80" as="geometry" />
        </mxCell>
        <mxCell id="DALeheetJn7gOVZ7iviD-99" value="" style="shape=hexagon;perimeter=hexagonPerimeter2;whiteSpace=wrap;html=1;fixedSize=1;" vertex="1" parent="1">
          <mxGeometry x="1691.75" y="546" width="75" height="65" as="geometry" />
        </mxCell>
        <mxCell id="DALeheetJn7gOVZ7iviD-101" value="BD&lt;div&gt;&amp;nbsp;logÃ­stica 1&lt;/div&gt;" style="text;html=1;align=center;verticalAlign=middle;whiteSpace=wrap;rounded=0;fontSize=10;" vertex="1" parent="1">
          <mxGeometry x="1696.13" y="563" width="66.25" height="30" as="geometry" />
        </mxCell>
        <mxCell id="DALeheetJn7gOVZ7iviD-102" value="BD&lt;div&gt;&amp;nbsp;compras 1&lt;/div&gt;" style="text;html=1;align=center;verticalAlign=middle;whiteSpace=wrap;rounded=0;fontSize=10;" vertex="1" parent="1">
          <mxGeometry x="1618" y="610.5" width="66.25" height="30" as="geometry" />
        </mxCell>
        <mxCell id="DALeheetJn7gOVZ7iviD-106" value="Servidor de BDS&lt;div&gt;&lt;br&gt;&lt;/div&gt;&lt;div&gt;&lt;br&gt;&lt;/div&gt;&lt;div&gt;&lt;br&gt;&lt;/div&gt;&lt;div&gt;&lt;br&gt;&lt;/div&gt;&lt;div&gt;&lt;br&gt;&lt;/div&gt;&lt;div&gt;&lt;br&gt;&lt;div&gt;&lt;br&gt;&lt;/div&gt;&lt;/div&gt;&lt;div&gt;&lt;br&gt;&lt;/div&gt;&lt;div&gt;&lt;br&gt;&lt;/div&gt;&lt;div&gt;&lt;br&gt;&lt;/div&gt;&lt;div&gt;&lt;br&gt;&lt;/div&gt;&lt;div&gt;&lt;br&gt;&lt;/div&gt;&lt;div&gt;&lt;br&gt;&lt;/div&gt;&lt;div&gt;&lt;br&gt;&lt;/div&gt;&lt;div&gt;&lt;br&gt;&lt;/div&gt;&lt;div&gt;&lt;br&gt;&lt;/div&gt;" style="shape=cube;whiteSpace=wrap;html=1;boundedLbl=1;backgroundOutline=1;darkOpacity=0.05;darkOpacity2=0.1;" vertex="1" parent="1">
          <mxGeometry x="1828" y="410" width="220" height="280" as="geometry" />
        </mxCell>
        <mxCell id="DALeheetJn7gOVZ7iviD-107" value="" style="shape=hexagon;perimeter=hexagonPerimeter2;whiteSpace=wrap;html=1;fixedSize=1;fillColor=#fff2cc;strokeColor=#d6b656;" vertex="1" parent="1">
          <mxGeometry x="1868" y="495" width="90" height="80" as="geometry" />
        </mxCell>
        <mxCell id="DALeheetJn7gOVZ7iviD-108" value="" style="shape=hexagon;perimeter=hexagonPerimeter2;whiteSpace=wrap;html=1;fixedSize=1;" vertex="1" parent="1">
          <mxGeometry x="1875.5" y="503" width="75" height="65" as="geometry" />
        </mxCell>
        <mxCell id="DALeheetJn7gOVZ7iviD-109" value="" style="shape=hexagon;perimeter=hexagonPerimeter2;whiteSpace=wrap;html=1;fixedSize=1;fillColor=#fff2cc;strokeColor=#d6b656;" vertex="1" parent="1">
          <mxGeometry x="1868" y="585" width="90" height="80" as="geometry" />
        </mxCell>
        <mxCell id="DALeheetJn7gOVZ7iviD-110" value="" style="shape=hexagon;perimeter=hexagonPerimeter2;whiteSpace=wrap;html=1;fixedSize=1;" vertex="1" parent="1">
          <mxGeometry x="1875.5" y="593" width="75" height="65" as="geometry" />
        </mxCell>
        <mxCell id="DALeheetJn7gOVZ7iviD-111" value="BD&lt;div&gt;&amp;nbsp;ventas 2&lt;/div&gt;" style="text;html=1;align=center;verticalAlign=middle;whiteSpace=wrap;rounded=0;fontSize=10;" vertex="1" parent="1">
          <mxGeometry x="1879.75" y="523" width="66.25" height="30" as="geometry" />
        </mxCell>
        <mxCell id="DALeheetJn7gOVZ7iviD-112" value="" style="shape=hexagon;perimeter=hexagonPerimeter2;whiteSpace=wrap;html=1;fixedSize=1;fillColor=#fff2cc;strokeColor=#d6b656;" vertex="1" parent="1">
          <mxGeometry x="1944.25" y="538" width="90" height="80" as="geometry" />
        </mxCell>
        <mxCell id="DALeheetJn7gOVZ7iviD-113" value="" style="shape=hexagon;perimeter=hexagonPerimeter2;whiteSpace=wrap;html=1;fixedSize=1;" vertex="1" parent="1">
          <mxGeometry x="1951.75" y="546" width="75" height="65" as="geometry" />
        </mxCell>
        <mxCell id="DALeheetJn7gOVZ7iviD-115" value="BD&lt;div&gt;&amp;nbsp;compras 2&lt;/div&gt;" style="text;html=1;align=center;verticalAlign=middle;whiteSpace=wrap;rounded=0;fontSize=10;" vertex="1" parent="1">
          <mxGeometry x="1878" y="610.5" width="66.25" height="30" as="geometry" />
        </mxCell>
        <mxCell id="DALeheetJn7gOVZ7iviD-116" value="BD&lt;div&gt;&amp;nbsp;logÃ­stica 2&lt;/div&gt;" style="text;html=1;align=center;verticalAlign=middle;whiteSpace=wrap;rounded=0;fontSize=10;" vertex="1" parent="1">
          <mxGeometry x="1958" y="560.5" width="66.25" height="30" as="geometry" />
        </mxCell>
        <mxCell id="DALeheetJn7gOVZ7iviD-117" style="edgeStyle=orthogonalEdgeStyle;rounded=0;orthogonalLoop=1;jettySize=auto;html=1;exitX=0;exitY=0;exitDx=220;exitDy=150;exitPerimeter=0;entryX=0;entryY=0;entryDx=100;entryDy=0;entryPerimeter=0;" edge="1" parent="1" source="DALeheetJn7gOVZ7iviD-4" target="DALeheetJn7gOVZ7iviD-106">
          <mxGeometry relative="1" as="geometry" />
        </mxCell>
        <mxCell id="DALeheetJn7gOVZ7iviD-121" value="TCPIP" style="edgeLabel;html=1;align=center;verticalAlign=middle;resizable=0;points=[];" vertex="1" connectable="0" parent="DALeheetJn7gOVZ7iviD-117">
          <mxGeometry x="-0.5899" y="-2" relative="1" as="geometry">
            <mxPoint as="offset" />
          </mxGeometry>
        </mxCell>
        <mxCell id="DALeheetJn7gOVZ7iviD-118" style="edgeStyle=orthogonalEdgeStyle;rounded=0;orthogonalLoop=1;jettySize=auto;html=1;exitX=0;exitY=0;exitDx=220;exitDy=140;exitPerimeter=0;entryX=0;entryY=0;entryDx=120;entryDy=280;entryPerimeter=0;" edge="1" parent="1">
          <mxGeometry relative="1" as="geometry">
            <mxPoint x="1413" y="872" as="sourcePoint" />
            <mxPoint x="1948" y="692" as="targetPoint" />
            <Array as="points">
              <mxPoint x="1413" y="812" />
              <mxPoint x="1948" y="812" />
            </Array>
          </mxGeometry>
        </mxCell>
        <mxCell id="DALeheetJn7gOVZ7iviD-122" value="" style="endArrow=none;dashed=1;html=1;dashPattern=1 3;strokeWidth=2;rounded=0;entryX=0;entryY=0.5;entryDx=0;entryDy=0;" edge="1" parent="1" target="DALeheetJn7gOVZ7iviD-82">
          <mxGeometry width="50" height="50" relative="1" as="geometry">
            <mxPoint x="1338" y="680" as="sourcePoint" />
            <mxPoint x="1578" y="570" as="targetPoint" />
            <Array as="points">
              <mxPoint x="1488" y="680" />
              <mxPoint x="1488" y="535" />
            </Array>
          </mxGeometry>
        </mxCell>
        <mxCell id="DALeheetJn7gOVZ7iviD-123" value="" style="endArrow=none;dashed=1;html=1;dashPattern=1 3;strokeWidth=2;rounded=0;entryX=0;entryY=0.5;entryDx=0;entryDy=0;" edge="1" parent="1" target="DALeheetJn7gOVZ7iviD-84">
          <mxGeometry width="50" height="50" relative="1" as="geometry">
            <mxPoint x="1488" y="625" as="sourcePoint" />
            <mxPoint x="1578" y="570" as="targetPoint" />
          </mxGeometry>
        </mxCell>
        <mxCell id="DALeheetJn7gOVZ7iviD-124" value="" style="endArrow=none;dashed=1;html=1;dashPattern=1 3;strokeWidth=2;rounded=0;entryX=0.5;entryY=1;entryDx=0;entryDy=0;" edge="1" parent="1" target="DALeheetJn7gOVZ7iviD-98">
          <mxGeometry width="50" height="50" relative="1" as="geometry">
            <mxPoint x="1488" y="680" as="sourcePoint" />
            <mxPoint x="1578" y="570" as="targetPoint" />
            <Array as="points">
              <mxPoint x="1488" y="710" />
              <mxPoint x="1728" y="710" />
            </Array>
          </mxGeometry>
        </mxCell>
        <mxCell id="DALeheetJn7gOVZ7iviD-125" value="" style="endArrow=none;dashed=1;html=1;dashPattern=1 3;strokeWidth=2;rounded=0;entryX=0.5;entryY=1;entryDx=0;entryDy=0;" edge="1" parent="1" target="DALeheetJn7gOVZ7iviD-109">
          <mxGeometry width="50" height="50" relative="1" as="geometry">
            <mxPoint x="1728" y="710" as="sourcePoint" />
            <mxPoint x="1578" y="660" as="targetPoint" />
            <Array as="points">
              <mxPoint x="1913" y="710" />
            </Array>
          </mxGeometry>
        </mxCell>
        <mxCell id="DALeheetJn7gOVZ7iviD-126" value="" style="endArrow=none;dashed=1;html=1;dashPattern=1 3;strokeWidth=2;rounded=0;entryX=0.5;entryY=1;entryDx=0;entryDy=0;" edge="1" parent="1" target="DALeheetJn7gOVZ7iviD-112">
          <mxGeometry width="50" height="50" relative="1" as="geometry">
            <mxPoint x="1918" y="710" as="sourcePoint" />
            <mxPoint x="1978" y="660" as="targetPoint" />
            <Array as="points">
              <mxPoint x="1989" y="710" />
            </Array>
          </mxGeometry>
        </mxCell>
        <mxCell id="DALeheetJn7gOVZ7iviD-127" value="" style="endArrow=none;dashed=1;html=1;dashPattern=1 3;strokeWidth=2;rounded=0;entryX=0;entryY=0.5;entryDx=0;entryDy=0;" edge="1" parent="1" target="DALeheetJn7gOVZ7iviD-107">
          <mxGeometry width="50" height="50" relative="1" as="geometry">
            <mxPoint x="1818" y="710" as="sourcePoint" />
            <mxPoint x="1978" y="660" as="targetPoint" />
            <Array as="points">
              <mxPoint x="1818" y="535" />
            </Array>
          </mxGeometry>
        </mxCell>
        <mxCell id="DALeheetJn7gOVZ7iviD-128" value="" style="endArrow=none;dashed=1;html=1;dashPattern=1 3;strokeWidth=2;rounded=0;entryX=1;entryY=0.5;entryDx=0;entryDy=0;" edge="1" parent="1" target="DALeheetJn7gOVZ7iviD-2">
          <mxGeometry width="50" height="50" relative="1" as="geometry">
            <mxPoint x="848" y="480" as="sourcePoint" />
            <mxPoint x="1098" y="570" as="targetPoint" />
          </mxGeometry>
        </mxCell>
        <mxCell id="DALeheetJn7gOVZ7iviD-136" value="&lt;font style=&quot;font-size: 14px;&quot;&gt;SERVICIO PRINCIPAL&lt;/font&gt;" style="rounded=0;whiteSpace=wrap;html=1;fillColor=#d5e8d4;strokeColor=#82b366;" vertex="1" parent="1">
          <mxGeometry x="1518" y="10" width="160" height="60" as="geometry" />
        </mxCell>
        <mxCell id="DALeheetJn7gOVZ7iviD-137" value="&lt;font style=&quot;font-size: 14px;&quot;&gt;SERVICIO DE RESPALDO&lt;/font&gt;" style="rounded=0;whiteSpace=wrap;html=1;fillColor=#fff2cc;strokeColor=#d6b656;" vertex="1" parent="1">
          <mxGeometry x="1518" y="84" width="160" height="60" as="geometry" />
        </mxCell>
        <mxCell id="DALeheetJn7gOVZ7iviD-138" value="&lt;div&gt;&amp;nbsp;&lt;/div&gt;&lt;div&gt;&lt;span style=&quot;background-color: transparent; color: light-dark(rgb(0, 0, 0), rgb(255, 255, 255));&quot;&gt;Servidor&lt;/span&gt;&lt;/div&gt;API GATEWAY&lt;div&gt;&lt;br&gt;&lt;/div&gt;&lt;div&gt;&lt;br&gt;&lt;div&gt;&lt;br&gt;&lt;/div&gt;&lt;div&gt;&lt;br&gt;&lt;/div&gt;&lt;div&gt;&lt;br&gt;&lt;/div&gt;&lt;div&gt;&lt;br&gt;&lt;/div&gt;&lt;/div&gt;" style="shape=cube;whiteSpace=wrap;html=1;boundedLbl=1;backgroundOutline=1;darkOpacity=0.05;darkOpacity2=0.1;" vertex="1" parent="1">
          <mxGeometry x="2610" y="355" width="160" height="130" as="geometry" />
        </mxCell>
        <mxCell id="DALeheetJn7gOVZ7iviD-139" value="" style="shape=module;align=left;spacingLeft=20;align=center;verticalAlign=top;whiteSpace=wrap;html=1;direction=west;" vertex="1" parent="1">
          <mxGeometry x="2670" y="425" width="60" height="50" as="geometry" />
        </mxCell>
        <mxCell id="DALeheetJn7gOVZ7iviD-140" value="&lt;font style=&quot;font-size: 9px;&quot;&gt;Monitor&lt;/font&gt;" style="text;html=1;align=center;verticalAlign=middle;whiteSpace=wrap;rounded=0;" vertex="1" parent="1">
          <mxGeometry x="2660" y="435" width="60" height="30" as="geometry" />
        </mxCell>
        <mxCell id="DALeheetJn7gOVZ7iviD-238" value="" style="edgeStyle=orthogonalEdgeStyle;rounded=0;orthogonalLoop=1;jettySize=auto;html=1;" edge="1" parent="1" source="DALeheetJn7gOVZ7iviD-143" target="DALeheetJn7gOVZ7iviD-146">
          <mxGeometry relative="1" as="geometry">
            <Array as="points">
              <mxPoint x="2979" y="340" />
              <mxPoint x="2979" y="340" />
            </Array>
          </mxGeometry>
        </mxCell>
        <mxCell id="DALeheetJn7gOVZ7iviD-143" value="Servidor de ventas 1&lt;div&gt;&lt;br&gt;&lt;/div&gt;&lt;div&gt;&lt;br&gt;&lt;div&gt;&lt;br&gt;&lt;/div&gt;&lt;div&gt;&lt;br&gt;&lt;/div&gt;&lt;div&gt;&lt;br&gt;&lt;/div&gt;&lt;div&gt;&lt;br&gt;&lt;/div&gt;&lt;div&gt;&lt;br&gt;&lt;/div&gt;&lt;div&gt;&lt;br&gt;&lt;div&gt;&lt;br&gt;&lt;/div&gt;&lt;/div&gt;&lt;/div&gt;" style="shape=cube;whiteSpace=wrap;html=1;boundedLbl=1;backgroundOutline=1;darkOpacity=0.05;darkOpacity2=0.1;" vertex="1" parent="1">
          <mxGeometry x="2868.75" y="70" width="220" height="190" as="geometry" />
        </mxCell>
        <mxCell id="DALeheetJn7gOVZ7iviD-144" value="" style="shape=hexagon;perimeter=hexagonPerimeter2;whiteSpace=wrap;html=1;fixedSize=1;labelBackgroundColor=none;fillColor=#d5e8d4;strokeColor=#82b366;" vertex="1" parent="1">
          <mxGeometry x="2950" y="136.5" width="90" height="80" as="geometry" />
        </mxCell>
        <mxCell id="DALeheetJn7gOVZ7iviD-145" value="Servidor de BDS&lt;div&gt;&lt;br&gt;&lt;/div&gt;&lt;div&gt;&lt;br&gt;&lt;/div&gt;&lt;div&gt;&lt;br&gt;&lt;/div&gt;&lt;div&gt;&lt;br&gt;&lt;/div&gt;&lt;div&gt;&lt;br&gt;&lt;/div&gt;&lt;div&gt;&lt;br&gt;&lt;div&gt;&lt;br&gt;&lt;/div&gt;&lt;/div&gt;&lt;div&gt;&lt;br&gt;&lt;/div&gt;&lt;div&gt;&lt;br&gt;&lt;/div&gt;&lt;div&gt;&lt;br&gt;&lt;/div&gt;&lt;div&gt;&lt;br&gt;&lt;/div&gt;&lt;div&gt;&lt;br&gt;&lt;/div&gt;&lt;div&gt;&lt;br&gt;&lt;/div&gt;&lt;div&gt;&lt;br&gt;&lt;/div&gt;&lt;div&gt;&lt;br&gt;&lt;/div&gt;&lt;div&gt;&lt;br&gt;&lt;/div&gt;" style="shape=cube;whiteSpace=wrap;html=1;boundedLbl=1;backgroundOutline=1;darkOpacity=0.05;darkOpacity2=0.1;" vertex="1" parent="1">
          <mxGeometry x="3280" y="380" width="220" height="280" as="geometry" />
        </mxCell>
        <mxCell id="DALeheetJn7gOVZ7iviD-234" value="" style="edgeStyle=orthogonalEdgeStyle;rounded=0;orthogonalLoop=1;jettySize=auto;html=1;" edge="1" parent="1" source="DALeheetJn7gOVZ7iviD-146" target="DALeheetJn7gOVZ7iviD-147">
          <mxGeometry relative="1" as="geometry">
            <Array as="points">
              <mxPoint x="2990" y="610" />
              <mxPoint x="2990" y="610" />
            </Array>
          </mxGeometry>
        </mxCell>
        <mxCell id="DALeheetJn7gOVZ7iviD-235" value="TCP/IP" style="edgeLabel;html=1;align=center;verticalAlign=middle;resizable=0;points=[];" vertex="1" connectable="0" parent="DALeheetJn7gOVZ7iviD-234">
          <mxGeometry x="0.0468" y="-1" relative="1" as="geometry">
            <mxPoint as="offset" />
          </mxGeometry>
        </mxCell>
        <mxCell id="DALeheetJn7gOVZ7iviD-146" value="Servidor de Compras 1&lt;div&gt;&lt;br&gt;&lt;div&gt;&lt;br&gt;&lt;/div&gt;&lt;/div&gt;&lt;div&gt;&lt;br&gt;&lt;/div&gt;&lt;div&gt;&lt;br&gt;&lt;/div&gt;&lt;div&gt;&lt;br&gt;&lt;/div&gt;&lt;div&gt;&lt;br&gt;&lt;/div&gt;&lt;div&gt;&lt;br&gt;&lt;/div&gt;&lt;div&gt;&lt;br&gt;&lt;/div&gt;&lt;div&gt;&lt;br&gt;&lt;/div&gt;" style="shape=cube;whiteSpace=wrap;html=1;boundedLbl=1;backgroundOutline=1;darkOpacity=0.05;darkOpacity2=0.1;" vertex="1" parent="1">
          <mxGeometry x="2880" y="360" width="220" height="180" as="geometry" />
        </mxCell>
        <mxCell id="DALeheetJn7gOVZ7iviD-239" value="" style="edgeStyle=orthogonalEdgeStyle;rounded=0;orthogonalLoop=1;jettySize=auto;html=1;" edge="1" parent="1" source="DALeheetJn7gOVZ7iviD-147" target="DALeheetJn7gOVZ7iviD-146">
          <mxGeometry relative="1" as="geometry">
            <Array as="points">
              <mxPoint x="3000" y="610" />
              <mxPoint x="3000" y="610" />
            </Array>
          </mxGeometry>
        </mxCell>
        <mxCell id="DALeheetJn7gOVZ7iviD-147" value="Servidor de LogÃ­stica 1&lt;div&gt;&lt;br&gt;&lt;/div&gt;&lt;div&gt;&lt;br&gt;&lt;/div&gt;&lt;div&gt;&lt;br&gt;&lt;/div&gt;&lt;div&gt;&lt;br&gt;&lt;/div&gt;&lt;div&gt;&lt;br&gt;&lt;/div&gt;&lt;div&gt;&lt;br&gt;&lt;div&gt;&lt;br&gt;&lt;/div&gt;&lt;/div&gt;" style="shape=cube;whiteSpace=wrap;html=1;boundedLbl=1;backgroundOutline=1;darkOpacity=0.05;darkOpacity2=0.1;" vertex="1" parent="1">
          <mxGeometry x="2888.01" y="628" width="220" height="160" as="geometry" />
        </mxCell>
        <mxCell id="DALeheetJn7gOVZ7iviD-148" style="edgeStyle=orthogonalEdgeStyle;rounded=0;orthogonalLoop=1;jettySize=auto;html=1;exitX=0;exitY=0;exitDx=160;exitDy=75;exitPerimeter=0;entryX=0;entryY=0;entryDx=0;entryDy=70;entryPerimeter=0;" edge="1" parent="1" source="DALeheetJn7gOVZ7iviD-138" target="DALeheetJn7gOVZ7iviD-146">
          <mxGeometry relative="1" as="geometry" />
        </mxCell>
        <mxCell id="DALeheetJn7gOVZ7iviD-149" value="TCP/IP" style="edgeLabel;html=1;align=center;verticalAlign=middle;resizable=0;points=[];" vertex="1" connectable="0" parent="DALeheetJn7gOVZ7iviD-148">
          <mxGeometry x="-0.0312" y="-2" relative="1" as="geometry">
            <mxPoint as="offset" />
          </mxGeometry>
        </mxCell>
        <mxCell id="DALeheetJn7gOVZ7iviD-150" style="edgeStyle=orthogonalEdgeStyle;rounded=0;orthogonalLoop=1;jettySize=auto;html=1;exitX=0;exitY=0;exitDx=70;exitDy=0;exitPerimeter=0;entryX=0;entryY=0;entryDx=0;entryDy=70;entryPerimeter=0;" edge="1" parent="1" source="DALeheetJn7gOVZ7iviD-138" target="DALeheetJn7gOVZ7iviD-143">
          <mxGeometry relative="1" as="geometry" />
        </mxCell>
        <mxCell id="DALeheetJn7gOVZ7iviD-151" value="TCP/IP" style="edgeLabel;html=1;align=center;verticalAlign=middle;resizable=0;points=[];" vertex="1" connectable="0" parent="DALeheetJn7gOVZ7iviD-150">
          <mxGeometry x="-0.4229" y="-1" relative="1" as="geometry">
            <mxPoint as="offset" />
          </mxGeometry>
        </mxCell>
        <mxCell id="DALeheetJn7gOVZ7iviD-152" style="edgeStyle=orthogonalEdgeStyle;rounded=0;orthogonalLoop=1;jettySize=auto;html=1;exitX=0;exitY=0;exitDx=90;exitDy=130;exitPerimeter=0;entryX=0;entryY=0;entryDx=0;entryDy=70;entryPerimeter=0;" edge="1" parent="1" source="DALeheetJn7gOVZ7iviD-138" target="DALeheetJn7gOVZ7iviD-147">
          <mxGeometry relative="1" as="geometry" />
        </mxCell>
        <mxCell id="DALeheetJn7gOVZ7iviD-153" value="TCPIP" style="edgeLabel;html=1;align=center;verticalAlign=middle;resizable=0;points=[];" vertex="1" connectable="0" parent="DALeheetJn7gOVZ7iviD-152">
          <mxGeometry x="-0.4227" relative="1" as="geometry">
            <mxPoint as="offset" />
          </mxGeometry>
        </mxCell>
        <mxCell id="DALeheetJn7gOVZ7iviD-154" style="edgeStyle=orthogonalEdgeStyle;rounded=0;orthogonalLoop=1;jettySize=auto;html=1;exitX=0;exitY=0;exitDx=70;exitDy=0;exitPerimeter=0;" edge="1" parent="1" source="DALeheetJn7gOVZ7iviD-146">
          <mxGeometry relative="1" as="geometry">
            <mxPoint x="2970" y="260" as="targetPoint" />
            <Array as="points">
              <mxPoint x="2970" y="360" />
            </Array>
          </mxGeometry>
        </mxCell>
        <mxCell id="DALeheetJn7gOVZ7iviD-236" value="TCP/IP" style="edgeLabel;html=1;align=center;verticalAlign=middle;resizable=0;points=[];" vertex="1" connectable="0" parent="DALeheetJn7gOVZ7iviD-154">
          <mxGeometry x="0.1347" y="-4" relative="1" as="geometry">
            <mxPoint as="offset" />
          </mxGeometry>
        </mxCell>
        <mxCell id="DALeheetJn7gOVZ7iviD-156" style="edgeStyle=orthogonalEdgeStyle;rounded=0;orthogonalLoop=1;jettySize=auto;html=1;entryX=0;entryY=0;entryDx=0;entryDy=110.00000000000001;entryPerimeter=0;exitX=1.008;exitY=0.728;exitDx=0;exitDy=0;exitPerimeter=0;" edge="1" parent="1" source="DALeheetJn7gOVZ7iviD-146" target="DALeheetJn7gOVZ7iviD-145">
          <mxGeometry relative="1" as="geometry">
            <mxPoint x="3220" y="670" as="sourcePoint" />
            <Array as="points">
              <mxPoint x="3110" y="491" />
            </Array>
          </mxGeometry>
        </mxCell>
        <mxCell id="DALeheetJn7gOVZ7iviD-157" value="TCP/IP" style="edgeLabel;html=1;align=center;verticalAlign=middle;resizable=0;points=[];" vertex="1" connectable="0" parent="DALeheetJn7gOVZ7iviD-156">
          <mxGeometry x="0.0541" y="4" relative="1" as="geometry">
            <mxPoint as="offset" />
          </mxGeometry>
        </mxCell>
        <mxCell id="DALeheetJn7gOVZ7iviD-158" style="edgeStyle=orthogonalEdgeStyle;rounded=0;orthogonalLoop=1;jettySize=auto;html=1;exitX=1.001;exitY=0.314;exitDx=0;exitDy=0;exitPerimeter=0;entryX=0;entryY=0;entryDx=150;entryDy=280;entryPerimeter=0;" edge="1" parent="1">
          <mxGeometry relative="1" as="geometry">
            <mxPoint x="3108.22" y="781.6400000000001" as="sourcePoint" />
            <mxPoint x="3413" y="660" as="targetPoint" />
          </mxGeometry>
        </mxCell>
        <mxCell id="DALeheetJn7gOVZ7iviD-159" value="TCP/IP" style="edgeLabel;html=1;align=center;verticalAlign=middle;resizable=0;points=[];" vertex="1" connectable="0" parent="DALeheetJn7gOVZ7iviD-158">
          <mxGeometry x="-0.3669" y="-2" relative="1" as="geometry">
            <mxPoint as="offset" />
          </mxGeometry>
        </mxCell>
        <mxCell id="DALeheetJn7gOVZ7iviD-160" value="" style="shape=hexagon;perimeter=hexagonPerimeter2;whiteSpace=wrap;html=1;fixedSize=1;" vertex="1" parent="1">
          <mxGeometry x="2957.5" y="144.5" width="75" height="65" as="geometry" />
        </mxCell>
        <mxCell id="DALeheetJn7gOVZ7iviD-169" value="" style="shape=hexagon;perimeter=hexagonPerimeter2;whiteSpace=wrap;html=1;fixedSize=1;fillColor=#d5e8d4;strokeColor=#82b366;" vertex="1" parent="1">
          <mxGeometry x="2951.13" y="428" width="90" height="80" as="geometry" />
        </mxCell>
        <mxCell id="DALeheetJn7gOVZ7iviD-170" value="" style="shape=hexagon;perimeter=hexagonPerimeter2;whiteSpace=wrap;html=1;fixedSize=1;" vertex="1" parent="1">
          <mxGeometry x="2958.63" y="436" width="75" height="65" as="geometry" />
        </mxCell>
        <mxCell id="DALeheetJn7gOVZ7iviD-173" value="" style="shape=hexagon;perimeter=hexagonPerimeter2;whiteSpace=wrap;html=1;fixedSize=1;fillColor=#d5e8d4;strokeColor=#82b366;" vertex="1" parent="1">
          <mxGeometry x="2963.01" y="688" width="90" height="80" as="geometry" />
        </mxCell>
        <mxCell id="DALeheetJn7gOVZ7iviD-174" value="" style="shape=hexagon;perimeter=hexagonPerimeter2;whiteSpace=wrap;html=1;fixedSize=1;" vertex="1" parent="1">
          <mxGeometry x="2970.51" y="696" width="75" height="65" as="geometry" />
        </mxCell>
        <mxCell id="DALeheetJn7gOVZ7iviD-177" value="Micro servicio de ventas" style="text;html=1;align=center;verticalAlign=middle;whiteSpace=wrap;rounded=0;fontSize=10;" vertex="1" parent="1">
          <mxGeometry x="2963" y="167.5" width="66.25" height="30" as="geometry" />
        </mxCell>
        <mxCell id="DALeheetJn7gOVZ7iviD-180" value="Micro servicio de compras" style="text;html=1;align=center;verticalAlign=middle;whiteSpace=wrap;rounded=0;fontSize=10;" vertex="1" parent="1">
          <mxGeometry x="2964.88" y="452" width="66.25" height="40" as="geometry" />
        </mxCell>
        <mxCell id="DALeheetJn7gOVZ7iviD-184" value="Micro servicio de logÃ­&lt;span style=&quot;color: rgba(0, 0, 0, 0); font-family: monospace; font-size: 0px; text-align: start; text-wrap-mode: nowrap;&quot;&gt;%3CmxGraphModel%3E%3Croot%3E%3CmxCell%20id%3D%220%22%2F%3E%3CmxCell%20id%3D%221%22%20parent%3D%220%22%2F%3E%3CmxCell%20id%3D%222%22%20value%3D%22Micro%20servicio%20de%20compras%22%20style%3D%22text%3Bhtml%3D1%3Balign%3Dcenter%3BverticalAlign%3Dmiddle%3BwhiteSpace%3Dwrap%3Brounded%3D0%3BfontSize%3D10%3B%22%20vertex%3D%221%22%20parent%3D%221%22%3E%3CmxGeometry%20x%3D%22537.13%22%20y%3D%2249.5%22%20width%3D%2266.25%22%20height%3D%2240%22%20as%3D%22geometry%22%2F%3E%3C%2FmxCell%3E%3C%2Froot%3E%3C%2FmxGraphModel%3E&lt;/span&gt;&lt;span style=&quot;background-color: transparent; color: light-dark(rgb(0, 0, 0), rgb(255, 255, 255));&quot;&gt;stica&lt;/span&gt;" style="text;html=1;align=center;verticalAlign=middle;whiteSpace=wrap;rounded=0;fontSize=10;" vertex="1" parent="1">
          <mxGeometry x="2976.3900000000003" y="708.5" width="66.25" height="40" as="geometry" />
        </mxCell>
        <mxCell id="DALeheetJn7gOVZ7iviD-190" value="" style="endArrow=none;dashed=1;html=1;dashPattern=1 3;strokeWidth=2;rounded=0;exitX=0;exitY=0.5;exitDx=0;exitDy=0;entryX=0;entryY=0.5;entryDx=0;entryDy=0;" edge="1" parent="1" source="DALeheetJn7gOVZ7iviD-140" target="DALeheetJn7gOVZ7iviD-144">
          <mxGeometry width="50" height="50" relative="1" as="geometry">
            <mxPoint x="2950" y="420" as="sourcePoint" />
            <mxPoint x="2540" y="425" as="targetPoint" />
            <Array as="points">
              <mxPoint x="2560" y="450" />
              <mxPoint x="2560" y="177" />
            </Array>
          </mxGeometry>
        </mxCell>
        <mxCell id="DALeheetJn7gOVZ7iviD-241" value="PING/ECHO" style="edgeLabel;html=1;align=center;verticalAlign=middle;resizable=0;points=[];" vertex="1" connectable="0" parent="DALeheetJn7gOVZ7iviD-190">
          <mxGeometry x="-0.3225" y="-1" relative="1" as="geometry">
            <mxPoint as="offset" />
          </mxGeometry>
        </mxCell>
        <mxCell id="DALeheetJn7gOVZ7iviD-191" value="" style="endArrow=none;dashed=1;html=1;dashPattern=1 3;strokeWidth=2;rounded=0;entryX=0;entryY=0.5;entryDx=0;entryDy=0;" edge="1" parent="1" source="DALeheetJn7gOVZ7iviD-140" target="DALeheetJn7gOVZ7iviD-173">
          <mxGeometry width="50" height="50" relative="1" as="geometry">
            <mxPoint x="2950" y="420" as="sourcePoint" />
            <mxPoint x="3000" y="370" as="targetPoint" />
            <Array as="points">
              <mxPoint x="2560" y="450" />
              <mxPoint x="2560" y="728" />
            </Array>
          </mxGeometry>
        </mxCell>
        <mxCell id="DALeheetJn7gOVZ7iviD-242" value="PING/ECHO" style="edgeLabel;html=1;align=center;verticalAlign=middle;resizable=0;points=[];" vertex="1" connectable="0" parent="DALeheetJn7gOVZ7iviD-191">
          <mxGeometry x="-0.5839" relative="1" as="geometry">
            <mxPoint as="offset" />
          </mxGeometry>
        </mxCell>
        <mxCell id="DALeheetJn7gOVZ7iviD-196" value="" style="endArrow=none;dashed=1;html=1;dashPattern=1 3;strokeWidth=2;rounded=0;exitX=0;exitY=0.5;exitDx=0;exitDy=0;" edge="1" parent="1" source="DALeheetJn7gOVZ7iviD-169">
          <mxGeometry width="50" height="50" relative="1" as="geometry">
            <mxPoint x="2923.75" y="455" as="sourcePoint" />
            <mxPoint x="2560" y="550" as="targetPoint" />
            <Array as="points">
              <mxPoint x="2800" y="468" />
              <mxPoint x="2800" y="550" />
            </Array>
          </mxGeometry>
        </mxCell>
        <mxCell id="DALeheetJn7gOVZ7iviD-199" value="" style="shape=hexagon;perimeter=hexagonPerimeter2;whiteSpace=wrap;html=1;fixedSize=1;fillColor=#d5e8d4;strokeColor=#82b366;" vertex="1" parent="1">
          <mxGeometry x="3320" y="465" width="90" height="80" as="geometry" />
        </mxCell>
        <mxCell id="DALeheetJn7gOVZ7iviD-200" value="" style="shape=hexagon;perimeter=hexagonPerimeter2;whiteSpace=wrap;html=1;fixedSize=1;" vertex="1" parent="1">
          <mxGeometry x="3327.5" y="473" width="75" height="65" as="geometry" />
        </mxCell>
        <mxCell id="DALeheetJn7gOVZ7iviD-201" value="" style="shape=hexagon;perimeter=hexagonPerimeter2;whiteSpace=wrap;html=1;fixedSize=1;fillColor=#d5e8d4;strokeColor=#82b366;" vertex="1" parent="1">
          <mxGeometry x="3320" y="555" width="90" height="80" as="geometry" />
        </mxCell>
        <mxCell id="DALeheetJn7gOVZ7iviD-202" value="" style="shape=hexagon;perimeter=hexagonPerimeter2;whiteSpace=wrap;html=1;fixedSize=1;" vertex="1" parent="1">
          <mxGeometry x="3327.5" y="563" width="75" height="65" as="geometry" />
        </mxCell>
        <mxCell id="DALeheetJn7gOVZ7iviD-203" value="BD&lt;div&gt;&amp;nbsp;ventas 1&lt;/div&gt;" style="text;html=1;align=center;verticalAlign=middle;whiteSpace=wrap;rounded=0;fontSize=10;" vertex="1" parent="1">
          <mxGeometry x="3331.75" y="493" width="66.25" height="30" as="geometry" />
        </mxCell>
        <mxCell id="DALeheetJn7gOVZ7iviD-204" style="edgeStyle=orthogonalEdgeStyle;rounded=0;orthogonalLoop=1;jettySize=auto;html=1;exitX=0;exitY=0;exitDx=220;exitDy=150;exitPerimeter=0;entryX=0;entryY=0;entryDx=130;entryDy=0;entryPerimeter=0;" edge="1" parent="1" source="DALeheetJn7gOVZ7iviD-143" target="DALeheetJn7gOVZ7iviD-145">
          <mxGeometry relative="1" as="geometry" />
        </mxCell>
        <mxCell id="DALeheetJn7gOVZ7iviD-240" value="TCP/IP" style="edgeLabel;html=1;align=center;verticalAlign=middle;resizable=0;points=[];" vertex="1" connectable="0" parent="DALeheetJn7gOVZ7iviD-204">
          <mxGeometry x="-0.2643" y="-2" relative="1" as="geometry">
            <mxPoint x="1" as="offset" />
          </mxGeometry>
        </mxCell>
        <mxCell id="DALeheetJn7gOVZ7iviD-205" value="" style="shape=hexagon;perimeter=hexagonPerimeter2;whiteSpace=wrap;html=1;fixedSize=1;fillColor=#d5e8d4;strokeColor=#82b366;" vertex="1" parent="1">
          <mxGeometry x="3396.25" y="508" width="90" height="80" as="geometry" />
        </mxCell>
        <mxCell id="DALeheetJn7gOVZ7iviD-206" value="" style="shape=hexagon;perimeter=hexagonPerimeter2;whiteSpace=wrap;html=1;fixedSize=1;" vertex="1" parent="1">
          <mxGeometry x="3403.75" y="516" width="75" height="65" as="geometry" />
        </mxCell>
        <mxCell id="DALeheetJn7gOVZ7iviD-207" value="BD&lt;div&gt;&amp;nbsp;logÃ­stica 1&lt;/div&gt;" style="text;html=1;align=center;verticalAlign=middle;whiteSpace=wrap;rounded=0;fontSize=10;" vertex="1" parent="1">
          <mxGeometry x="3408.13" y="533" width="66.25" height="30" as="geometry" />
        </mxCell>
        <mxCell id="DALeheetJn7gOVZ7iviD-208" value="BD&lt;div&gt;&amp;nbsp;compras 1&lt;/div&gt;" style="text;html=1;align=center;verticalAlign=middle;whiteSpace=wrap;rounded=0;fontSize=10;" vertex="1" parent="1">
          <mxGeometry x="3330" y="580.5" width="66.25" height="30" as="geometry" />
        </mxCell>
        <mxCell id="DALeheetJn7gOVZ7iviD-222" value="" style="endArrow=none;dashed=1;html=1;dashPattern=1 3;strokeWidth=2;rounded=0;entryX=0;entryY=0.5;entryDx=0;entryDy=0;" edge="1" parent="1" target="DALeheetJn7gOVZ7iviD-199">
          <mxGeometry width="50" height="50" relative="1" as="geometry">
            <mxPoint x="2800" y="550" as="sourcePoint" />
            <mxPoint x="3290" y="540" as="targetPoint" />
            <Array as="points">
              <mxPoint x="2800" y="610" />
              <mxPoint x="3200" y="610" />
              <mxPoint x="3200" y="505" />
            </Array>
          </mxGeometry>
        </mxCell>
        <mxCell id="DALeheetJn7gOVZ7iviD-223" value="" style="endArrow=none;dashed=1;html=1;dashPattern=1 3;strokeWidth=2;rounded=0;entryX=0;entryY=0.5;entryDx=0;entryDy=0;" edge="1" parent="1" target="DALeheetJn7gOVZ7iviD-201">
          <mxGeometry width="50" height="50" relative="1" as="geometry">
            <mxPoint x="3200" y="595" as="sourcePoint" />
            <mxPoint x="3290" y="540" as="targetPoint" />
          </mxGeometry>
        </mxCell>
        <mxCell id="DALeheetJn7gOVZ7iviD-224" value="" style="endArrow=none;dashed=1;html=1;dashPattern=1 3;strokeWidth=2;rounded=0;entryX=0.5;entryY=1;entryDx=0;entryDy=0;" edge="1" parent="1" target="DALeheetJn7gOVZ7iviD-205">
          <mxGeometry width="50" height="50" relative="1" as="geometry">
            <mxPoint x="3200" y="610" as="sourcePoint" />
            <mxPoint x="3290" y="540" as="targetPoint" />
            <Array as="points">
              <mxPoint x="3200" y="680" />
              <mxPoint x="3440" y="680" />
            </Array>
          </mxGeometry>
        </mxCell>
        <mxCell id="DALeheetJn7gOVZ7iviD-228" value="" style="endArrow=none;dashed=1;html=1;dashPattern=1 3;strokeWidth=2;rounded=0;entryX=1;entryY=0.5;entryDx=0;entryDy=0;" edge="1" parent="1" target="DALeheetJn7gOVZ7iviD-139">
          <mxGeometry width="50" height="50" relative="1" as="geometry">
            <mxPoint x="2560" y="450" as="sourcePoint" />
            <mxPoint x="2810" y="540" as="targetPoint" />
          </mxGeometry>
        </mxCell>
      </root>
    </mxGraphModel>
  </diagram>
</mxfile>
